<?xml version="1.0" encoding="UTF-8" standalone="no"?>
<svg
   xmlns:svg="http://www.w3.org/2000/svg"
   xmlns="http://www.w3.org/2000/svg"
   version="1.1"
   width="200"
   height="250"
   id="svg2"
   xml:space="preserve"><defs
     id="defs6" /><g
     transform="matrix(1.25,0,0,-1.25,-95.720458,1193.6311)"
     id="g12"><g
       transform="matrix(2.2320329,0,0,2.2320329,145.50407,890.62333)"
       id="g44"><path
         d="m 0,0 c 0,-7.66 -6.197,-14.373 -15.492,-14.373 -9.296,0 -15.358,6.713 -15.358,14.373 l 0,28.786 9.209,0 0,-28.786 c 0,-3.012 2.103,-6.197 6.149,-6.197 4.045,0 6.283,3.185 6.283,6.197 l 0,28.786 9.209,0 L 0,0 z"
         id="path46"
         style="fill:#003a80;fill-opacity:1;fill-rule:nonzero;stroke:none" /></g><g
       transform="matrix(2.2320329,0,0,2.2320329,181.70854,893.69862)"
       id="g48"><path
         d="m 0,0 0,-12.997 c 0,-1.205 -0.688,-1.893 -1.894,-1.893 l -5.421,0 c -1.206,0 -1.894,0.688 -1.894,1.893 l 0,40.406 9.209,0 0,-17.292 C 0.087,9.299 0.65,8.692 1.511,8.692 c 1.119,0 2.055,0.689 2.657,1.635 l 8.693,14.963 1.236,2.119 10.485,0 L 22.87,24.758 11.447,5.855 c 0,0 -0.448,-0.688 -0.441,-1.178 0.006,-0.472 0.437,-1.127 0.437,-1.127 l 10.723,-16.116 c 0.775,-1.205 0.086,-2.324 -1.291,-2.324 l -6.426,0 c -1.39,0 -2.065,0.517 -2.84,1.808 L 3.901,-0.211 C 3.299,0.736 2.63,1.425 1.511,1.425 0.65,1.425 0.087,0.811 0,0"
         id="path50"
         style="fill:#003a80;fill-opacity:1;fill-rule:nonzero;stroke:none" /></g><g
       transform="matrix(2.2320329,0,0,2.2320329,146.11051,783.20875)"
       id="g52"><path
         d="m 0,0 c 0,8.346 -6.859,12.108 -15.401,12.791 0,0 -5.678,0.534 -5.678,4.406 0,1.377 1.376,3.652 5.592,3.652 2.98,0 4.3,-1.096 6.693,-3.378 0.775,-0.688 1.807,-0.859 2.668,-0.257 l 3.599,2.71 c 0.946,0.688 0.896,1.788 0.243,2.61 -3.271,4.62 -8.471,6.402 -13.203,6.402 -9.808,0 -14.54,-6.061 -14.54,-11.739 0,-6.797 5.145,-11.66 14.455,-12.494 0,0 6.366,-0.229 6.366,-4.703 0,-2.495 -1.807,-4.494 -6.281,-4.494 -3.699,0 -7.141,2.753 -8.861,5.077 -0.603,0.859 -1.549,1.118 -2.496,0.515 l -3.441,-2.322 c -0.946,-0.689 -1.119,-1.721 -0.517,-2.668 2.581,-4.13 7.744,-8.776 15.315,-8.776 C -5.678,-12.668 0,-7.485 0,0"
         id="path54"
         style="fill:#e20026;fill-opacity:1;fill-rule:nonzero;stroke:none" /></g><g
       transform="matrix(2.2320329,0,0,2.2320329,229.68073,760.69982)"
       id="g56"><path
         d="m 0,0 0,35.964 c 0,1.205 -0.688,1.893 -1.893,1.893 l -5.306,0 c -1.204,0 -1.893,-0.688 -1.893,-1.893 l 0,-12.896 c 0,-0.602 -0.344,-0.946 -0.946,-0.946 l -10.499,0 c -0.602,0 -0.946,0.344 -0.946,0.946 l 0,12.896 c 0,1.205 -0.688,1.893 -1.893,1.893 l -5.42,0 c -1.205,0 -1.893,-0.688 -1.893,-1.893 l 0,-35.964 c 0,-1.204 0.688,-1.893 1.893,-1.893 l 5.42,0 c 1.205,0 1.893,0.689 1.893,1.893 l 0,13.164 c 0,0.602 0.344,0.946 0.946,0.946 l 10.499,0 c 0.602,0 0.946,-0.344 0.946,-0.946 L -9.092,0 c 0,-1.204 0.689,-1.893 1.893,-1.893 l 5.306,0 C -0.688,-1.893 0,-1.204 0,0"
         id="path58"
         style="fill:#003a80;fill-opacity:1;fill-rule:nonzero;stroke:none" /></g></g></svg>